<svg xmlns="http://www.w3.org/2000/svg" height="363" width="1920"><path d="M0 182V0h1920v363H0z" fill="#d59977"/><path d="M0 197V31l5-1c7-2 43-2 49 0a251 251 0 0079-1c11-4 15-4 20-3l17 1 24 2h22c9-2 12-2 20 0 8 1 10 1 15-1 7-2 15-1 25 2 6 2 9 2 47 2l49 2c6 2 13 2 35 3a294 294 0 0146 4c12 1 21 1 28-1l23-2c21 0 36-1 49-4a226 226 0 0164 3l21 2 18 2 16-1 20-2c20 1 42 0 49-1 12-2 50-1 59 1 8 2 13 3 20 2h19l16 1h10a199 199 0 0087-2c7-2 10-2 20 1l17 4h21a152 152 0 0150 3l12 2c9 2 16 2 25-1 11-4 14-4 27 0 12 4 15 4 25 1 5-2 9-2 21-2 11-1 15-1 20-3l10-2c5 0 19 2 31 5l14 1 14 2c7 2 14 2 29 3a3696 3696 0 0171 0 152 152 0 0030-2 342 342 0 0016 0c2 2 17 2 27-1 8-2 15-2 19-1h33c9 2 13 2 17 1h6c3 3 34 3 49 0 7-2 14-2 20 0 9 2 14 3 16 2l8-1c5 0 7-1 8-2 1-2 3-2 13-3a193 193 0 0130 1l4-1c4-2 11-2 13-1 2 2 11 0 19-3h4c4 2 19 1 21-1s4-2 16-5h14c8 2 32 2 35 0l3-1 3-2h4l18 1a415 415 0 0135 1c7 3 9 2 19-1l16-3 15-1 13 1 11 2h6v330H0z" fill="#926e6c"/><path d="M0 237V110l6-1 12-5c6-2 7-2 22-2 11 1 16 1 22-1l25-6a226 226 0 0141-3l8 1c2 2 19 3 22 2l27-3 25-2 11 2 13 3c5 0 15 4 26 11a132 132 0 0024 11l25 9 14 5 6 1 8 2c4 1 17 1 24-2l16-1h11l6 4 8 4 7-2a491 491 0 0146-14l9-4 2-3h-5l-6-2h-2l-5 1-4 2-12 2c-9 1-11 1-15-1-2-1-4-2-5-1h-3c-2-1-1-3 2-4l4-2 6-1c3 0 3 0 2-2s-1-2-3-1l-4 1h-4-6c-7-2-10-1-16 2l-10 3-11 1c-15 2-20 3-22 2h-3c-3 2-6 2-7 0l-3-1-3-2-3-4c-2-2-2-2-1-4 2-2 24-12 32-14l22-1c24-1 36-4 35-9 0-2-1-2-8-2-9 0-15 1-15 2 0 3-2 4-4 4l-1-2c0-2-6-5-8-4l-9 1c-5 0-6 0-9-2l-6-3-2-1c0-2-4-1-7 2-2 2-5 3-6 1h-13l-3 3c-2 2-4 3-6 2h-7c-5 0-6 0-9-2l-4-1-5 1-4 1-3-2c-1-2-2-2-3-1-3 2-20 0-22-3h-4c-2-1-12 0-15 1-1 1-2 0-4-1-1-2-3-3-5-3l-3-2c0-2 8-4 17-4l24-3c12-2 18-3 22-2h12l13 1c3 1 8 2 11 1 6 0 15 1 19 4h10c1-2 13-4 21-5a124 124 0 0027-4l17-1 16-1h16l18-1 11-2a124 124 0 0036-9c7-3 10-3 22-3l17-2 4 1c1 3 7 3 9 0l2-3c-2-2 15-1 29 2a359 359 0 0074 6l10-2h13a141 141 0 0047-2c17-2 38-1 45 2 3 2 7 2 15 2l17 2c7 2 12 2 18 1a388 388 0 0132 4c5 2 19 2 25 0l11-1 11-1 8-2c6 0 16-2 22-5 7-4 9-4 19 0l13 3c17 3 23 4 26 3s6 0 6 1c0 2 4 1 5-1s35-1 51 3c13 2 13 2 22 1l10-2 2-1c1-2 10-1 16 1 13 4 15 4 24 3l15-2c5 1 14 0 22-1 10-1 14-1 17-3l3-2 12 1 18 4 12 1 12 2c10 5 12 5 21 6 7 0 10 0 14-2 6-1 6-1 25 1l7 2 5 1c18-3 20-3 30-1 19 5 34 6 40 3l4-1 5-1c2-1 28 1 30 2l11 4c9 2 11 2 28 2l26 1 12 2 13 2c13 3 30 2 47-3h14l13 4c6 2 20 3 26 2l17 1a501 501 0 0078 3l9 2 11 3c5 2 8 3 12 2 4 0 5 0 11 3 7 4 11 4 25 1h14l10 1c4 0 6 1 6 2l2 2 6 1 4 2-3 1c-6 2-20 4-23 2h-27l-10 1c-1 0 0 2 2 3l2 2 5-2c5-3 8-3 13 0 6 3 12 4 17 3l11-4 7-3 8 2 9 3 13-5c7-4 11-6 14-6l14-2c10-2 11-2 21-1l12 2c2 0 2 15 2 133v133H0zm1391-59a1511 1511 0 0021-6c0-2-4-3-7-2-3 2-14 1-18-1-4-1-16-2-20-1-3 1-3 4 1 4l2 1-2 2c-4 0-4 2-1 3h24zm-280-11l18-4 28-8 28 8c6 2 8 3 36 2 18-1 21-1 27 1 7 2 25 2 38 1 10-1 13-1 23 1 14 2 25 2 30-1 5-2 4-4-8-6l-9-3c-1-1 0-1 10-1 13 1 14 0 13-8v-5h-4l-18 1-54 1c-41 0-52 1-60 4l-17 3-17 2-13-1-33-1-33-1c-7-1-43-2-62-1-6 0-9 1-8 3 1 1 8 5 11 5l9 3 16 6a203 203 0 0049 0zm-678-64l-1-1-2 1 1 1 2-1zm1368-3h-3c-1 1-1 1 1 1l2-1zM427 81c2 0 3-1 3-2l1-1c2 0 5-3 4-4l-3 1c-2 2-2 2-4 1l-4-2c-3 1-6 5-5 7 0 2 3 2 8 0zm16-6c5-2 4-3-1-3-4 0-6 1-4 3h5zM0 98l1-2v-5l-1-5c0-3 0-3 3-3 7 0 17 3 19 5l5 3c2 1 2 1 1 3l-4 1-12 1-5 1-5 2-2-1zm7-6l-1-1H5l1 2 1-1zm26 1l2-3 5-3 11-4 13-3 16-5c7-3 12-4 20-5l14-3c4-2 6-2 13 0 5 2 17 3 31 5 8 0 13 1 14 2 1 2-2 3-4 2l-10 1a291 291 0 01-35 3l-14 2-10 1-3 1c-3-1-10 1-12 3l-4 2-4 1c-3 2-13 2-15 1-2-2-15-2-18 0l-4 2h-2l-3 1c-2 0-2 0-1-1zm150-16h1l1 1h-1l-1-1zm42-5l2-1 2 1-3 1-1-1zm342-35l2-1c4 0 4 1 1 1h-3z" fill="#4b5685"/><path d="M0 237V110l6-1 12-5c6-2 7-2 22-2 11 1 16 1 22-1l25-6a226 226 0 0141-3l8 1c2 2 19 3 22 2l27-3 25-2 11 2 13 3c5 0 15 4 26 11a132 132 0 0024 11l25 9 14 5 6 1 8 2c4 1 17 1 24-2l16-1h11l6 4 8 4 7-2a491 491 0 0146-14l9-4 2-3h-5l-6-2h-2l-5 1-4 2-12 2c-9 1-11 1-15-1-2-1-4-2-5-1h-3c-2-1-1-3 2-4l4-2 6-1c3 0 3 0 2-2s-1-2-3-1l-4 1h-4-6c-7-2-10-1-16 2l-10 3-11 1c-15 2-20 3-22 2h-3c-3 2-6 2-7 0l-3-1-3-2-3-4c-2-2-2-2-1-4 2-2 24-12 32-14l22-1c24-1 36-4 35-9 0-2-1-2-8-2-9 0-15 1-15 2 0 3-2 4-4 4l-1-2c0-2-6-5-8-4l-9 1c-5 0-6 0-9-2l-6-3-2-1c0-2-4-1-7 2-2 2-5 3-6 1h-13l-3 3c-2 2-4 3-6 2h-7c-5 0-6 0-9-2l-4-1-5 1-4 1-3-2c-1-2-2-2-3-1-3 2-20 0-22-3h-4c-2-1-12 0-15 1-1 1-2 0-4-1-1-2-3-3-5-3l-3-2c0-2 8-4 17-4l24-3c12-2 18-3 22-2h12l13 1c3 1 8 2 11 1 6 0 15 1 19 4h10c1-2 13-4 21-5a124 124 0 0027-4l17-1 16-1h16l18-1 11-2a124 124 0 0036-9c7-3 10-3 22-3l17-2 4 1c1 3 7 3 9 0l2-3c-2-2 15-1 29 2a359 359 0 0074 6l10-2h13a141 141 0 0047-2c17-2 38-1 45 2 3 2 7 2 15 2l17 2c7 2 12 2 18 1a388 388 0 0132 4c5 2 19 2 25 0l11-1 11-1 8-2c6 0 16-2 22-5 7-4 9-4 19 0l13 3c17 3 23 4 26 3s6 0 6 1c0 2 4 1 5-1s35-1 51 3c13 2 13 2 22 1l10-2 2-1c1-2 10-1 16 1 13 4 15 4 24 3l15-2c5 1 14 0 22-1 10-1 14-1 17-3l3-2 12 1 18 4 12 1 12 2c10 5 12 5 21 6 7 0 10 0 14-2 6-1 6-1 25 1l7 2 5 1c18-3 20-3 30-1 19 5 34 6 40 3l4-1 5-1c2-1 28 1 30 2l11 4c9 2 11 2 28 2l26 1 12 2 13 2c13 3 30 2 47-3h14l13 4c6 2 20 3 26 2l17 1a501 501 0 0078 3l9 2 11 3c5 2 8 3 12 2 4 0 5 0 11 3 7 4 11 4 25 1h14l10 1c4 0 6 1 6 2l2 2 6 1 4 2-3 1c-6 2-20 4-23 2h-27l-10 1c-1 0 0 2 2 3l2 2 5-2c5-3 8-3 13 0 6 3 12 4 17 3l11-4 7-3 8 2 9 3 13-5c7-4 11-6 14-6l14-2c10-2 11-2 21-1l12 2c2 0 2 15 2 133v133H0zm1109 34l4-2c2-2 3-3 5-2 2 0 3 0 5-2l5-3 5-1 7-2a252 252 0 0044-12c3 0 16-5 19-7l4-1c3 0 11-3 15-6 3-2 18-6 25-6l19 2 9 1c5 1 6 1 6-1 1-1 2-2 5-2l8-1c3-2 4-2 7 0l13 1c8 0 11-1 19-3 10-3 24-6 30-6l9-2c10-3 17-4 37-4l26-1c6-2 15-6 20-10l6-3 4-3-6-1-9 2-16 2-18 1h-7c-2-1-4-2-5-1h-3l-1 1-1 1h-2l-4 1-11 1h-8c-1-1-6 0-16 2h-18l-16 1-6 1a730 730 0 00-30-2l4-1a186 186 0 0154-17l11-2 7-1 8-2 7-1c12 2 13 2 19 0l15-6 30-11c3-1 10-1 32 1a209 209 0 0083-10l13-2c14-2 26-5 33-9 8-4 11-5 25-5l13-2 7-1c3 0 7-1 10-3 5-2 7-2 11-1l12 2c6 0 9 0 15-2a161 161 0 0118-6l10-3 9-3c2-2 2-2-3-1l-6 1-33 1c-47 0-48 0-51 2l-11 3-8 2-5 1-7 1c-9 2-26 2-29 0l-1-2h-1l-2-1h-1l-1-1-2-1h-3l-3 1h-16c-1-1-1-1-3 1-3 3-12 8-14 7l-3 1-9 1c-8 1-9 0-11-2l-4-2-2-1c1-2-3-4-4-2-1 1-4 1-6-1h-1c1 1-3 4-6 5h-6c2-1 2-2-2-3-2-2-3-2-4-1h-4l-4 1h-7l-12 1h-4c1-1 0-1-4-1l-6 2v1l1 1h-8c1 2-3 5-3 4-1-1-4-1-11 1l-15 1h-10l-14 1c-4 0-7 1-7 2l-2 3-2 2-2 3c-2 2-2 2-3 1-1-2-4-2-4-1l-2 1c-1-1-2 0-2 2l-1 3h-3l-2-5c0-8 0-8-6-8-14 2-33 3-69 3-42 0-53 1-61 4-7 3-23 4-23 2h1l1-1c0-1 8-4 9-3l3-1 3-1h2l3-1h1v-1h2l4 1 13-1h13c4 0 8-2 8-3h-1l-6-1-11-1c-3 0-4-1-5-2-2-3-3-3-7-3l-4 1-1 1c-2 0-3-1-2-2 1-2 0-2-3-1l-5 2-5-2c1-1-1-4-3-4l-3 3-4 4a79 79 0 00-21 2h-7c-4 0-5-1-7-2 0-1-1-2-2-1v-1l-1-1h-2c-1-4-2-5-4-4v2l-1 1h-1l-1 1-3 1c-2 2-11 2-11 1 1-1-3-2-4-1s-2 2-1 3c0 1-4 2-5 0l-2-1c-1 1-1 1 0 0l-5-1c-6 1-6 1-7-2l-1-4-2-1-1 1-1 2h-3c-2-2-2-2-4-1s-3 1-5-1l-3-2h-1l-4-2-4-1-6-1-2-2h-3l-5 1c-2 0-4-1-5-3s-1-2-2 0c-2 2-8 4-13 3l-4 1v1l-2-2-3-2-1-1h-2c-2 0-3 0-4-4l-1-3-1 3c-1 3-2 4-4 2s-4-2-9 0l-4 1-6-2h-2-5l-6-2h-9l-8 1c-6-1-8 0-8 1l-1 2-2 2c0 2-4 3-6 2h-3c-2 3-6 2-7-1-1-2-2-2-5-2l-9 1c-4 0-5 0-4-1l-2-2h-2c0 2-2 3-5 3-1 0-2 0-1 2l-3 1h-6c-1 1-3 0-5-1l-2-4-2-1v-1l-2-1-8 1-6 2-6 2-6 1-6 1-8 1h-3c-3-1-8-1-10 1-1 2-2 2-3 2l-7 5-2 4c0 2-10 4-11 3l-1-1h-6l1 1h1l11 3 16 4c6 2 8 2 12 1 5-1 23 0 33 2h35c13-2 24-1 28 1 3 1 5 2 7 1l12 2c9 2 12 2 22 1h15l14-1c4 0 5 0 11 3l9 4 9 3 14 5 8 3c6 6 15 9 28 9 7 0 9 1 10 2h-20c-2 0-2 0-2 2v4c1 2 1 2-5 1a72 72 0 00-15 0c-5 0-6 1-2 3l2 2c0 2-5 2-7 1h-3a483 483 0 01-83 1h-9l-2-1-4-1h-15l-14-1h-4c-2 1 1 8 6 9 2 2 3 2 3 4l-7 1a3091 3091 0 00-63-1c-5 0-10 1-9 4h-3l-4 2h-10l-9-1-11-3a694 694 0 00-106-4h-14c-7-1-11 0-14 1h-8l-10-1c-7 1-30 0-33-1l-8 2-6 2-3 1 6 1 7 1c1 1 3 2 6 1l4 1 3 1 2 1-11 2h-4c-3 1-9 1-11-1h-4c-1 2-3 2-5 2h-12-2l-11 1c-6-1-9 0-10 1h-3c-2-2-3-2-4-1-2 2-10 3-14 1h-4-4c-1-3-11-3-13-2l-4 3c-2 0-3 1-3 2 0 2-1 3-3 3-2 1-4 6-2 6l4-2c2-1 2-1 2 2 0 2 0 2 1 1 3-2 5-1 6 3 1 2 1 2 3 1h6c3 2 6 2 8 2l10-1 8-1c0-1 2-2 6-2 7 0 12-2 17-5l2-2 3 2c1 2 2 2 4 1h9l14-2 10-1c1-2 3-2 6-1h15l3 1h3l9 1c4 1 6 1 7-1h6c4 1 5 1 8-1l10-3c6-2 8-2 16-1l16 3c6 1 10 2 29 1 28 0 29 0 35-3 3-1 5-2 7-1l21 6 14 7c14 7 18 7 34 2a239 239 0 0151-9h11l15 2c6 1 12 2 22 6l15 2c9 2 11 2 16 5a74 74 0 019 7l8 7c6 5 11 7 21 4l8-1a273 273 0 0017 2h6l5 1c0 2 2 2 5 2l5 1 3 1c4 0 10 1 11 3 2 1 7 3 9 2h2zm-5-25c-1-2-13-3-13-2l-2 1-1-1v-2h-9l-26-2-6-1h-1c1 1-3 2-5 1h-4c-1 1-3 0-3-2 1-1 0-1-1-1l-2-1c0-1-19-1-20 1l-3-1c-3-2-3-2-5-1l-9 1a275 275 0 00-16-2c-3 0-3 0-2-2l-1-3-6-2c-4-2-5-4-2-6 10-8 16-11 21-11l10-2h9c4 4 18 9 26 9l9 2 10 2c8 1 23 5 26 7l10 2c6 0 8 1 12 3 9 6 11 9 8 12-2 2-2 2-4 1zm-570-19l2-1h1l-1 1h-2zm732-17v-1l2 1h-2zm-5-2h2l-2 1v-1zm-120-6l-6-1c-3 1-4 1-5-1-3-3-1-5 9-7s10-2 19-1c13 3 21 3 24 2s29-2 30-1l5 2 6 3c1 1 3 1-14 1l-23 2a250 250 0 01-40 1h-5zm107-34l-14-1c-12 0-15-1-11-2 3-2 19-1 26 1 7 1 7 2 5 3l-6-1zm-136 0c-1-1 0-1 3-2l13-3c8-3 13-4 18-4l4-2 3-1 13 2 5 1 4 1 8 3c6 1 7 2 5 3-1 1-6 0-9-2l-10-2h-7c1 1 0 1-2 1h-5l-3 1c-2-1 0-3 3-3h-12l-9 3-13 3-6 1h-3zm170 0l2-1-2 1c-1 1-1 1 0 0zm-84-1c-2-1 3-2 13-3l9 1c0 2-20 3-22 2zm-4-1c-1-1 0-1 0 0 2 0 2 1 1 1l-1-1zm132-6c-5-1-6-3-1-3 9 0 15 1 14 3h-13zm-158-6h2c1 1 0 1-1 1s-2 0-1-1zm14 0l2-1c0-1 1-1 0 0l-2 1zm-70-2h2l-2 1v-1zm27 0l3-1c4 0 4 0-1 1h-2zm-77-2h2l-2 1v-1zm16 0h4c1 1 0 1-2 1s-3 0-2-1zm121-7v-3c3-1 6-2 6 0h3c1-1 1-1 0 0l-3 2-2 1h-4zm-587 64l-1-1-1 1 2 1v-1zm-6-1v-1c-2-1-4-1-4 1h4zm71-28l7-3 4-1 5-2 4-3c0-1 1-2 2-1l5 2 16 1 10 2c10 0 14-1 21-5 4-2 4-2 2-3h-22-27c-1-1-8 0-10 1l-5 2-11 1-8-1h-3c-1 2-2 2-8 0-6-1-8-1-13 1-2 0-2 0-1 2l7 4 7 4c2 3 3 3 7 2l11-3zm191-7l5-6-18-1a667 667 0 01-27 0h-6l3 3c1 2 4 3 6 4l4 1 5 1 9 2 9 2c4 0 5 0 10-6zm10-7v-1l-1 1v1l1-1zm387-21c1-1 1-1-1-2h-3l-2-1-2-1-2 1v1l-2 1c0 1 10 3 12 1zm18-1l2-1 3-2c1-2 1-2-3-2l-6 1h-1v1c1 2 1 2-1 2l-9 1h15zm27 0h3l4-1c1-1 0-1-1-1l-4-1c-2-1-3-1-4 1l-1 1-1-1v2h4zm-517-6h3l2-1-2-1-3-1v-1-2l-1-2-1-2v1l-1 1c-2-1-3 1-6 5l-4 2-3 1 1 1h3c2 1 11 1 12-1zm14 0l-3-1c-1 1-1 1 1 2s4 0 2-1zm514 1l-1-1c-1 0-2 0-1 1l1 1 1-1zm-208-4l-2-1-1-1c-1 1 1 3 3 3v-1zm373-6c1-2-2-4-3-2-1 1-1 3 1 3l2-1zM433 103l-1-1-2 1 1 1 2-1zm1368-3h-3c-1 1-1 1 1 1l2-1zM427 81c2 0 3-1 3-2l1-1c2 0 5-3 4-4l-3 1c-2 2-2 2-4 1l-4-2c-3 1-6 5-5 7 0 2 3 2 8 0zm16-6c5-2 4-3-1-3-4 0-6 1-4 3h5zM0 98l1-2v-5l-1-5c0-3 0-3 3-3 7 0 17 3 19 5l5 3c2 1 2 1 1 3l-4 1-12 1-5 1-5 2-2-1zm7-6l-1-1H5l1 2 1-1zm26 1l2-3 5-3 11-4 13-3 16-5c7-3 12-4 20-5l14-3c4-2 6-2 13 0 5 2 17 3 31 5 8 0 13 1 14 2 1 2-2 3-4 2l-10 1a291 291 0 01-35 3l-14 2-10 1-3 1c-3-1-10 1-12 3l-4 2-4 1c-3 2-13 2-15 1-2-2-15-2-18 0l-4 2h-2l-3 1c-2 0-2 0-1-1zm150-16h1l1 1h-1l-1-1zm42-5l2-1 2 1-3 1-1-1zm342-35l2-1c4 0 4 1 1 1h-3z" fill="#5c4e6c"/><path d="M0 237V111h2l14-4 11-3h14c11 1 15 1 23-1l23-6c4-3 43-4 52-1 5 1 14 1 35-1 34-3 35-4 47-1l15 3c6 1 17 6 23 10l15 8 10 4a304 304 0 0053 16c3 2 6 2 13 1l12-2 14-1h12l6 4 8 5 14-5 16-5 11-3 12-3 15-7c18-9 22-10 47-10a1165 1165 0 01100 5c9 3 28 6 42 8l12 3c19 7 26 8 75 10a246 246 0 0141 4c18-1 24 0 30 2l11 2 12 2c5 2 7 2 11 1s22 0 33 2c10 2 22 2 32 1a108 108 0 0139 2l13 2 21 1h16c3 1 4 2 6 1 7-2 9-2 15 1l11 6c4 0 8 2 10 3l12 4 13 5c9 4 14 5 24 5 7 0 9 1 10 2h-21l-1 2v4c1 2 1 2-5 1a72 72 0 00-15 0c-5 0-6 1-2 3l2 2c0 2-5 2-7 1h-3a483 483 0 01-83 1h-9l-2-1-4-1h-15l-14-1h-4c-2 1 1 8 6 9 2 2 3 2 3 4l-7 1a3091 3091 0 00-63-1c-5 0-10 1-9 4h-3l-4 2h-10l-9-1-11-3a694 694 0 00-106-4h-14c-7-1-11 0-14 1h-8l-10-1c-7 1-30 0-33-1l-8 2-6 2-3 1 6 1 7 1c1 1 3 2 6 1l4 1 3 1 2 1-11 2h-4c-3 1-9 1-11-1h-4c-1 2-3 2-5 2h-12-2l-11 1c-6-1-9 0-10 1h-3c-2-2-3-2-4-1-2 2-10 3-14 1h-4-4c-1-3-11-3-13-2l-4 3c-2 0-3 1-3 2 0 2-1 3-3 3-2 1-4 6-2 6l4-2c2-1 2-1 2 2 0 2 0 2 1 1 3-2 5-1 6 3 1 2 1 2 3 1h6c3 2 6 2 8 2l10-1 8-1c0-1 2-2 6-2 7 0 12-2 17-5l2-2 3 2c1 2 2 2 4 1h9l14-2 10-1c1-2 3-2 6-1h15l3 1h3l9 1c4 1 6 1 7-1h6c4 1 5 1 8-1l10-3c6-2 8-2 16-1l16 3c6 1 10 2 29 1 28 0 29 0 35-3 3-1 5-2 7-1l21 6 14 7c14 7 18 7 34 2a239 239 0 0151-9h11l15 2c6 1 12 2 22 6l15 2c9 2 11 2 16 5a74 74 0 019 7l8 7c6 5 11 7 21 4l8-1a273 273 0 0017 2h6l5 1c0 2 2 2 5 2l5 1 3 1c4 0 10 1 11 3 4 3 11 3 15-1 2-1 3-2 5-1 2 0 3 0 5-2l5-3 5-1 7-2a252 252 0 0044-12c3 0 16-5 19-7l4-1c3 0 11-3 15-6 3-2 18-6 25-6l19 2 9 1c5 1 6 1 6-1 1-1 2-2 5-2l8-1c3-2 4-2 7 0l13 1c8 0 11-1 19-3 10-3 24-6 30-6l9-2c10-3 17-4 37-4l26-1c6-2 15-6 20-10l6-3 4-3-6-1-9 2-16 2-18 1h-7c-2-1-4-2-5-1h-3l-1 1-1 1h-2l-4 1-11 1h-8c-1-1-6 0-16 2h-18l-16 1-6 1a730 730 0 00-30-2l4-1a186 186 0 0154-17l9-2 27-2c11 0 16-1 38-10l25-8h63a76 76 0 0033-5c3-2 12-5 17-5l13-2c14-2 26-5 34-9 7-4 8-4 21-5a128 128 0 0024-3l9-3c5-2 7-2 11-1 11 2 18 2 28 0a231 231 0 0031-9c5-1 11-3 13-5 8-4 12-4 24-3l17 4 6 3 7-3 8-3 12-4c11-4 12-4 22-1l6 2 13-6c9-5 13-6 19-7l12-2c5-1 23-1 29 1h3v265H0zm612-30l-1-1-1 1 2 1v-1zm-6-1v-1c-2-1-4-1-4 1h4zm71-28l7-3 4-1 5-2 4-3c0-1 1-2 2-1l5 2 16 1 10 2c10 0 14-1 21-5 4-2 4-2 2-3h-22-27c-1-1-8 0-10 1l-5 2-11 1-8-1h-3c-1 2-2 2-8 0-6-1-8-1-13 1-2 0-2 0-1 2l7 4 7 4c2 3 3 3 7 2l11-3zm191-7l5-6-18-1a667 667 0 01-27 0h-6l3 3c1 2 4 3 6 4l4 1 5 1 9 2 9 2c4 0 5 0 10-6zm10-7v-1l-1 1v1l1-1zm226 82c-1-2-13-3-13-2l-2 1-1-1v-2h-9l-26-2-6-1h-1c1 1-3 2-5 1h-4c-1 1-3 0-3-2 1-1 0-1-1-1l-2-1c0-1-19-1-20 1l-3-1c-3-2-3-2-5-1l-9 1a275 275 0 00-16-2c-3 0-3 0-2-2l-1-3-6-2c-4-2-5-4-2-6 10-8 16-11 21-11l10-2h9c4 4 18 9 26 9l9 2 10 2c8 1 23 5 26 7l10 2c6 0 8 1 12 3 9 6 11 9 8 12-2 2-2 2-4 1zm-570-19l2-1h1l-1 1h-2zm732-17v-1l2 1h-2zm-5-2h2l-2 1v-1zm-120-6l-6-1c-3 1-4 1-5-1-3-3-1-5 9-7s10-2 19-1c13 3 21 3 24 2s29-2 30-1l5 2 6 3c1 1 3 1-14 1l-23 2a250 250 0 01-40 1h-5zm11-39c-1-1 0-2 5-2 4-1 5-1 5 1 1 1 1 1-2 1h-5-3zm-294-54c-1-1 0-1 1-1l2 1-2 1-1-1zm-10-1l2-1 2 1c1 1 0 1-1 1l-3-1zm160-38l-2-2c-2 0-1-5 1-7 3-2 4-1 4 1l1 2v6c-1 1-3 1-4-1zm6 0l3-4c4-3 11-2 11 3 0 1-13 2-14 1zm-13-9h2l-2 1v-1z" fill="#212c59"/><path d="M0 270a1652 1652 0 012-95l3-2c4-1 4-2-1-2l-3 1-1-18v-17l6 2c7 3 10 3 15-1l4-3 14 4c2 2 3 7 2 7l-2-2H27l2 2 5 3c2 0 9-1 12-3h10a829 829 0 0057 1l23-1h19l8 3c15 7 20 9 26 9l14 3c12 3 15 4 26 5 9 1 17 3 17 5l-4 3h-8l-8-2c-5 0-12-1-14-3l-7-2a732 732 0 01-10 1l-1 2-3 1-16 1a1352 1352 0 00-37 2c4 2 4 5 1 4l-9-1c-6 0-7-1-9-3l-4-2c-2 1-15-1-17-2l-7-1h-5-1c-2 2-8 4-10 4l-3 2c-3 3-4 3-4-2l-2-4-2 1c0 2-3 4-5 4l-2-2-3-2c-3 0-4 1-3 3l1 2c-1 2-7 1-7-1l-3-1h-3c-1-2-10-2-11 0-1 1-2 1-6-1-1-1-2-2-3-1v3l4 2 4 2h4c2-1 9 1 10 3 0 2 7 3 12 1 3-1 3-1 6 2 2 3 3 3 8 3l8-1h3c2 1 7 2 9 1h9c5-3 8-2 11 0 5 5 18 7 29 4h11c5 2 25 1 27-1l5-2c5 0 11-1 13-3l6-2 7-3 12-1c14 1 26 5 33 12l6 3 8 1 11 2 10 1 4 1 6 4c4 4 5 5 9 5h10l8 2c5 0 9 2 9 4l4 2c4 1 5 1 7-1s3-2 6 0l7 2c4 1 6 2 7 4 3 2 4 2 5 0v-2h5l1 4c0 3 4 4 9 4 3-1 4 0 6 1l8 2 10 2 6 1c1-1 2-1 2 1h8a4777 4777 0 0090 2l9 1 7 2c2 2 3 2 5 1s5-1 10 1h5c1-2 3-2 6-2 3 1 6 1 17-3l6-1 7-3c5-2 6-2 7-1 1 3 8 2 13 0l16-2a46398 46398 0 0068-2c9-5 20-5 35-2 9 3 17 3 38 3l33 1c3 1 3 1 4-2l2-2 4 1c2 0 3 1 3 2h3c3 0 5 0 7 2l10 4 10 4c2 2 8 3 12 4l8 2 6 5c4 4 8 5 11 6l8 2c3 2 7 2 13 2l14 2 8 3 3 1 1 1c1-1 3 0 4 3 2 2 2 3 0 3l-1 2 4 1 6-1 4 3 2 3 1-4c2-3 2-3 1-5-3-3-2-7 1-5 2 1 2 2 2 3-1 2 0 2 2 2 3-1 7 1 7 2 0 2 1 2 3 0 2-1 2-1 1-2l-1-2c0-3 1-3 6-3l12 1 9-1 12-1a386 386 0 0049-3l17 2h5l4 1c0 2 2 2 5 2l5 1 6 1 11 3c5 3 12 2 14-1l4-2 6-2 4-2 5-2c4-2 11-3 27-6l6-2c1-1 2-2 5-2l7-2 8-1 13 2c2 0 4 0 6-2l8-4c5-1 5-1 8 1h4l5-2 5-1 2-1 3-2c1-2 2-2 5-1 2 0 3 0 4-3s3-4 5-2h3l21-2 5-1c0-1 1-2 3-2l5-1c3-2 7-2 10-1l15 1c12 0 13 1 14 2 0 2 5 3 8 2 2-1 2-1 5 1 3 3 6 3 6 1s4-3 9-1h7c1-1 3-1 5 1h5c1-2 3-2 5-1h4l3 1c2 1 11 0 15-3 3-2 3-1 5 1 1 3 6 4 7 2l8-1h15l10-1c1-2 3-2 4-2 2 1 3 0 4-1l4-1 3-3c1-4 8-7 14-6 3 0 4-1 6-3s3-3 8-3l10-1 10-2c5-2 6-2 10-1h8c3-1 6-2 7-1l9-1c7-1 8-1 11 1l4 1h5l11 1c11 1 17 3 23 5 6 3 9 4 10 2h9l10-1c0-1 11 0 13 2 3 2 17-1 21-5 3-2 3-2 5 0h6c2-1 5 0 12 3h5l6-1 5-1c0-2 3-1 3 0 1 1 2 2 5 2l5 2c1 1 1 1 3-1 2-1 2-1 4 1s2 2 4 1h6c3 2 5 2 7 2h5c2 3 3 2 6-1 2-2 3-2 10-3h11c16 0 20 0 22-3 1-2 2-2 4 0 2 1 2 1 9-4l8-6 4-6-4-1-4-1-1-1-2 2c-1 3-7 5-10 3l-8-1-6-1 1-6c0-4 1-4 4-5l6-3 8-2 8-3 4-2c1 0 4-5 3-6l-3 1h-11l7-6 5-2c4-2 11-3 14-1h4c2-2 35-2 38 0 2 1 2 1 1 3-2 1-1 2 1 1l4 1c3 2 4 0 1-2-2-2-3-3-2-4 0-3 15-3 19 0h3l3-1 5-1c8-4 9-4 13-4 3 0 3 0 3 4l-2 5v3c2 1 2 10 2 97v97H0zm319 48c0-2-2-4-3-3l1 4 1 2 1-3zm638-28c3-1 2-4-1-5-5-2-8-1-9 2a1885 1885 0 0010 4zm270-7l-2-1-2 1 2 1 2-1zm-258-13h-4c-1 1 0 1 2 1s3 0 2-1zm6 0l-1-1-1 1 2 1v-1zm-186-9v-4c-1-2-1-3-5-3-5 0-10 2-10 4l3 1 7 1c4 2 5 2 5 1zm14-1l-1-1-3-3c-1-4-3-4-4 0 0 2 0 3 2 4h5zm12-3c1-2 1-2-1-2l-2 2 1 1 2-1zm-623-59c2-3 2-4-1-2-2 0-3 5-1 5l2-3zm-7-3l-1-1c-2-1-4 0-3 1h4zm18-1h-2c-1 0-1 1 1 1 2 1 3 0 1-1zm1629 2l-1-1h-1l1 1h1zM16 172c2 0 2-1 1-1l-3 1v2l2-2zm1840-3l-4-4-2 4 3 1 3-1zm33-2c0-2-3-3-5-1-1 2-1 3 1 3 2 1 4 0 4-2zm23 1c2-3-1-4-4-3s-4 2-2 3h6zM929 268c0-2 9-6 10-4 2 1 0 3-2 3l-5 1h-3zm836-68c0-2-1-2-4-2h-3c0-2 1-2 7-2l8 1-1 3c-2 4-6 4-7 0zm-34-3l1-1v1l-1 1v-1zM180 176v-1l2 1-1 1-1-1zm1613-2c1-2 5-2 6-1h-1l-2 1-2 1-1-1zm-178-1c0-1 6-4 15-7a118 118 0 0139-2l8 1h5c5 0 11 1 11 3l-3 1-11-2-2 1c1 1-2 2-5 2h-9l-10 1h-8c-3 2-8 2-15 2l-12 1-3-1zM344 162l-9-1-13-1-31-2c-8 0-12-1-13-2s-1-1 1-3l4-2 7-2c3-2 7-2 26-2h21l12 4a65 65 0 0119 9l1 1c-1 1-22 2-25 1zm1518-11l4-2 5-1 9-2 10-3 6-1 23-7c1-1 1 0 1 6s0 7-2 7l-7 2h-20c-7 2-29 2-29 1zm-213-8c0-1 8-3 9-2s0 1-1 1a2793 2793 0 01-8 1zm14-2l2-1v1l-1 1-1-1zm32-2h-4c-3 0-3 0-1-1l3-2 7-2 27-8 17-4 11-4 7-2 7 2c9 3 25 11 25 13l-5 1h-6c-1 2-5 2-17 0h-10l-16 2-15 1-12 2-13 1-5 1zM112 126H91a1267 1267 0 01-60-3c0-1 1-2 3-2l5-1h18l16-1c9 1 13 0 16-1 4-2 7-1 15 2l10 3c2 0 4 3 2 4s-2 1-4-1zM9 124v-2c1-1 7 0 9 2h-5-4zm14 0c-1-1 3-2 4-2l1 2h-5zm256-3v-2l3 1v2l-3-1zM0 116c0-4 1-4 3-4l13-4 11-3h37l24-7a174 174 0 0157 0h18l28-4 19-1 10 2 15 3 10 3a255 255 0 0128 16l4 2h-3l-6-1-4-1-9-3-15-3a168 168 0 00-50-4 191 191 0 00-29 1h-9l-11 1a287 287 0 00-46 0l-5 1c-2 1-17 3-19 2l-4 2c-4 1-8 2-27 2l-16 1-17 3H0v-4zm1862-8c-1-2 4-6 9-6l12-3c13-2 15-2 27-1l10 1v4c0 3 0 3-2 3a234 234 0 00-56 2z" fill="#171527"/></svg>